# xmcd
#
# Track frame offsets:
#	150
#	7867
#	15165
#	23062
#	32602
#	42060
#	55405
#	59100
#	72235
#	83605
#	97010
#	104890
#	111072
#	117272
#	124715
#	126955
#	138850
#	144842
#	149477
#	160642
#	171507
#	184057
#	186822
#	197195
#	202442
#	209687
#	218270
#	228695
#	238380
#	249012
#	252785
#	263110
#	271200
#	282930
#	293482
#	306132
#	316777
#
# Disc length: 4264 seconds
#
# Revision: 1
# Processed by: cddbd v1.5.1PL0 Copyright (c) Steve Scherf et al.
# Submitted via: CDex 1.50Beta5
#
DISCID=1e10a625
DTITLE=岡田久恵 - Live From London
DYEAR=2003
DGENRE=Books
TTITLE0=パイロットのアナウンスを聞く
TTITLE1=キャビンクルーのアナウンスを聞く
TTITLE2=The Galleryにチェックインする
TTITLE3=客室について説明を受ける
TTITLE4=料理について聞く
TTITLE5=パブってどんなもの?
TTITLE6=ロンドン地下鉄クイズ(1)
TTITLE7=Londonの情報を集める
TTITLE8=Scotlandの情報を集める
TTITLE9=Denbiesについてガイドに聞く
TTITLE10=Denbiesのワインを買う
TTITLE11=ウォーキングツアーの説明を聞く(1)
TTITLE12=ウォーキングツアーの説明を聞く(2)
TTITLE13=B&Bってどんなもの?
TTITLE14=ロンドン地下鉄クイズ(2)
TTITLE15=ミュージカル情報を集める
TTITLE16=Premiership情報を集める
TTITLE17=試合のチケットをゲットする
TTITLE18=スタジアムツアーに参加する
TTITLE19=掘り出し物のジャケットを買う
TTITLE20=コックニー英語ってどんなもの?
TTITLE21=ロンドン地下鉄クイズ(3)
TTITLE22=乗車券やパスについて尋ねる
TTITLE23=車内アナウンスを聞く
TTITLE24=前菜についてシェフに聞く
TTITLE25=メイン料理についてシェフに聞く
TTITLE26=観光Prのトークを聞く
TTITLE27=紅茶ってどんなもの?
TTITLE28=アフタヌーンティーってどんなもの?
TTITLE29=ロンドン地下鉄クイズ(4)
TTITLE30=Montblancでお買い物 Part 1
TTITLE31=Montblancでお買い物 Part 2
TTITLE32=Fenton Houseの案内を聞く
TTITLE33=King's Schoolのオリエンテーションに参加する
TTITLE34=King's Schoolの授業を聞いてみる
TTITLE35=ナショナル・トラストってどんなもの?
TTITLE36=ロンドン地下鉄クイズ(５)
EXTD=
EXTT0=
EXTT1=
EXTT2=
EXTT3=
EXTT4=
EXTT5=
EXTT6=
EXTT7=
EXTT8=
EXTT9=
EXTT10=
EXTT11=
EXTT12=
EXTT13=
EXTT14=
EXTT15=
EXTT16=
EXTT17=
EXTT18=
EXTT19=
EXTT20=
EXTT21=
EXTT22=
EXTT23=
EXTT24=
EXTT25=
EXTT26=
EXTT27=
EXTT28=
EXTT29=
EXTT30=
EXTT31=
EXTT32=
EXTT33=
EXTT34=
EXTT35=
EXTT36=
PLAYORDER=
